<?xml version="1.0" encoding="utf-8"?>
<!-- Generator: Adobe Illustrator 23.0.0, SVG Export Plug-In . SVG Version: 6.00 Build 0)  -->
<svg version="1.1" id="레이어_1" xmlns="http://www.w3.org/2000/svg" xmlns:xlink="http://www.w3.org/1999/xlink" x="0px"
	 y="0px" viewBox="0 0 1038.3 604.2" style="enable-background:new 0 0 1038.3 604.2;" xml:space="preserve">
<style type="text/css">
	.st0{clip-path:url(#SVGID_2_);fill:#0F1936;}
	.st1{opacity:0.19;clip-path:url(#SVGID_2_);}
	.st2{fill-rule:evenodd;clip-rule:evenodd;fill:#FFFFFF;}
	.st3{clip-path:url(#SVGID_4_);fill:#0F1936;}
	.st4{opacity:0.19;clip-path:url(#SVGID_4_);}
	.st5{fill:#FFFFFF;}
	.st6{fill:#0F1936;}
	.st7{opacity:0.56;}
	.st8{opacity:0.14;fill:#FFFFFF;}
	.st9{fill:#C3C4C4;}
	.st10{clip-path:url(#SVGID_6_);fill:#E4E4E5;}
	.st11{clip-path:url(#SVGID_6_);fill:#0F1936;}
	.st12{fill:#F2F2F3;}
	.st13{fill:#E72922;}
	.st14{fill:none;stroke:#FFFFFF;stroke-width:3;stroke-miterlimit:10;}
	.st15{opacity:0.41;fill:#137A77;}
	.st16{clip-path:url(#SVGID_8_);fill:#E4E4E5;}
	.st17{clip-path:url(#SVGID_8_);fill:#0F1936;}
	.st18{clip-path:url(#SVGID_10_);fill:#E4E4E5;}
	.st19{clip-path:url(#SVGID_10_);fill:#0F1936;}
	.st20{clip-path:url(#SVGID_12_);fill:#E4E4E5;}
	.st21{clip-path:url(#SVGID_12_);fill:#0F1936;}
	.st22{clip-path:url(#SVGID_14_);fill:#E4E4E5;}
	.st23{clip-path:url(#SVGID_14_);fill:#0F1936;}
	.st24{clip-path:url(#SVGID_16_);fill:#E4E4E5;}
	.st25{clip-path:url(#SVGID_16_);fill:#0F1936;}
	.st26{clip-path:url(#SVGID_18_);fill:#E4E4E5;}
	.st27{clip-path:url(#SVGID_18_);fill:#0F1936;}
	.st28{clip-path:url(#SVGID_20_);fill:#E4E4E5;}
	.st29{clip-path:url(#SVGID_20_);fill:#0F1936;}
	.st30{clip-path:url(#SVGID_22_);fill:#E4E4E5;}
	.st31{clip-path:url(#SVGID_22_);fill:#0F1936;}
	.st32{clip-path:url(#SVGID_24_);fill:#E4E4E5;}
	.st33{clip-path:url(#SVGID_24_);fill:#0F1936;}
</style>
<g>
	<path class="st5" d="M1027.4,146.6C979.8,18.8,764,2,536.5,1.8C309,1.6-64.3-27.6,9.5,157.1c25.1,45.7,88.4,41.7,88.4,41.7
		s91.3,1.9,25.6,59.7C69.3,306.1,50.5,319,50.5,319s-89.9,56.1-19.6,144.5c58.1,73.1,281.9,109,669.8-23.6
		c9.9,17.1,33.6,29.1,61.1,28.9c36.3-0.3,65.5-21.6,65.2-47.5c-0.1-9-3.7-17.3-9.9-24.4c47.6-18.9,97.3-40.1,149.1-63.8
		C966.3,333,1071.8,265.5,1027.4,146.6z"/>
	<path class="st5" d="M787.8,488.3c-19.2,0.2-34.7,11.5-34.6,25.2c0.1,13.8,15.8,24.8,35.1,24.6c19.2-0.2,34.7-11.5,34.6-25.2
		C822.7,499.1,807,488.1,787.8,488.3z"/>
	<path class="st5" d="M768.9,553.9c-14.2,0.1-25.6,8.5-25.6,18.6c0.1,10.2,11.7,18.3,25.9,18.2c14.2-0.1,25.6-8.5,25.6-18.6
		C794.7,561.9,783.1,553.8,768.9,553.9z"/>
	<path class="st5" d="M710.1,577.5c-10.2-1.7-19.4,2.8-20.7,10.1c-1.2,7.3,6,14.6,16.2,16.3c10.2,1.7,19.4-2.8,20.7-10.1
		S720.3,579.2,710.1,577.5z"/>
</g>
</svg>
